<mxfile host="Electron" modified="2023-09-14T08:09:33.236Z" agent="Mozilla/5.0 (Windows NT 10.0; Win64; x64) AppleWebKit/537.36 (KHTML, like Gecko) draw.io/21.6.5 Chrome/114.0.5735.243 Electron/25.3.1 Safari/537.36" etag="RFTzhILNFrEjHy1nZ31n" version="21.6.5" type="device">
  <diagram name="Страница 1" id="VjBzYcRpfkMybX7MFvjN">
    <mxGraphModel dx="1313" dy="896" grid="1" gridSize="10" guides="1" tooltips="1" connect="1" arrows="1" fold="1" page="1" pageScale="1" pageWidth="1169" pageHeight="827" math="0" shadow="0">
      <root>
        <mxCell id="0" />
        <mxCell id="1" parent="0" />
        <mxCell id="-I6fj7NBG1tW7BQArgD0-23" style="edgeStyle=orthogonalEdgeStyle;rounded=0;orthogonalLoop=1;jettySize=auto;html=1;entryX=0.5;entryY=0;entryDx=0;entryDy=0;" edge="1" parent="1" source="-I6fj7NBG1tW7BQArgD0-2" target="-I6fj7NBG1tW7BQArgD0-13">
          <mxGeometry relative="1" as="geometry" />
        </mxCell>
        <mxCell id="-I6fj7NBG1tW7BQArgD0-24" style="edgeStyle=orthogonalEdgeStyle;rounded=0;orthogonalLoop=1;jettySize=auto;html=1;entryX=0.5;entryY=0;entryDx=0;entryDy=0;" edge="1" parent="1" source="-I6fj7NBG1tW7BQArgD0-2" target="-I6fj7NBG1tW7BQArgD0-14">
          <mxGeometry relative="1" as="geometry" />
        </mxCell>
        <mxCell id="-I6fj7NBG1tW7BQArgD0-2" value="&lt;b&gt;&lt;font style=&quot;font-size: 14px;&quot;&gt;Турагент&lt;/font&gt;&lt;/b&gt;" style="shape=umlActor;verticalLabelPosition=bottom;verticalAlign=top;html=1;outlineConnect=0;labelBorderColor=default;" vertex="1" parent="1">
          <mxGeometry x="550" y="90" width="70" height="110" as="geometry" />
        </mxCell>
        <mxCell id="-I6fj7NBG1tW7BQArgD0-3" value="&lt;b&gt;&lt;font style=&quot;font-size: 14px;&quot;&gt;Клиент&lt;/font&gt;&lt;/b&gt;" style="shape=umlActor;verticalLabelPosition=bottom;verticalAlign=top;html=1;outlineConnect=0;labelBorderColor=default;" vertex="1" parent="1">
          <mxGeometry x="200" y="570" width="70" height="110" as="geometry" />
        </mxCell>
        <mxCell id="-I6fj7NBG1tW7BQArgD0-4" value="&lt;font style=&quot;font-size: 14px;&quot;&gt;&lt;b&gt;Туроператор&lt;/b&gt;&lt;/font&gt;" style="shape=umlActor;verticalLabelPosition=bottom;verticalAlign=top;html=1;outlineConnect=0;labelBorderColor=default;" vertex="1" parent="1">
          <mxGeometry x="930" y="570" width="70" height="110" as="geometry" />
        </mxCell>
        <mxCell id="-I6fj7NBG1tW7BQArgD0-6" value="Прогнозирование&amp;nbsp;&lt;br&gt;продаж&lt;br&gt;" style="rounded=1;whiteSpace=wrap;html=1;fillColor=#f8cecc;strokeColor=#b85450;" vertex="1" parent="1">
          <mxGeometry x="670" y="570" width="120" height="60" as="geometry" />
        </mxCell>
        <mxCell id="-I6fj7NBG1tW7BQArgD0-7" value="Добавление тура" style="rounded=1;whiteSpace=wrap;html=1;fillColor=#f8cecc;strokeColor=#b85450;" vertex="1" parent="1">
          <mxGeometry x="670" y="440" width="120" height="60" as="geometry" />
        </mxCell>
        <mxCell id="-I6fj7NBG1tW7BQArgD0-8" value="Формирование тура" style="rounded=1;whiteSpace=wrap;html=1;fillColor=#f8cecc;strokeColor=#b85450;" vertex="1" parent="1">
          <mxGeometry x="820" y="354" width="120" height="60" as="geometry" />
        </mxCell>
        <mxCell id="-I6fj7NBG1tW7BQArgD0-9" value="Поиск тура" style="rounded=1;whiteSpace=wrap;html=1;fillColor=#f8cecc;strokeColor=#b85450;" vertex="1" parent="1">
          <mxGeometry x="410" y="620" width="120" height="60" as="geometry" />
        </mxCell>
        <mxCell id="-I6fj7NBG1tW7BQArgD0-10" value="Просмотр информации&lt;br&gt;о туре" style="rounded=1;whiteSpace=wrap;html=1;fillColor=#f8cecc;strokeColor=#b85450;" vertex="1" parent="1">
          <mxGeometry x="440" y="510" width="120" height="60" as="geometry" />
        </mxCell>
        <mxCell id="-I6fj7NBG1tW7BQArgD0-11" value="Оставить&lt;br&gt;&amp;nbsp;пожелания" style="rounded=1;whiteSpace=wrap;html=1;fillColor=#f8cecc;strokeColor=#b85450;" vertex="1" parent="1">
          <mxGeometry x="310" y="440" width="120" height="60" as="geometry" />
        </mxCell>
        <mxCell id="-I6fj7NBG1tW7BQArgD0-12" value="Бронирование&lt;br&gt;&amp;nbsp;тура" style="rounded=1;whiteSpace=wrap;html=1;fillColor=#f8cecc;strokeColor=#b85450;" vertex="1" parent="1">
          <mxGeometry x="200" y="340" width="120" height="60" as="geometry" />
        </mxCell>
        <mxCell id="-I6fj7NBG1tW7BQArgD0-13" value="Реализация проекта" style="rounded=1;whiteSpace=wrap;html=1;fillColor=#f8cecc;strokeColor=#b85450;" vertex="1" parent="1">
          <mxGeometry x="280" y="200" width="120" height="60" as="geometry" />
        </mxCell>
        <mxCell id="-I6fj7NBG1tW7BQArgD0-14" value="Оформление договора" style="rounded=1;whiteSpace=wrap;html=1;fillColor=#f8cecc;strokeColor=#b85450;" vertex="1" parent="1">
          <mxGeometry x="770" y="200" width="120" height="60" as="geometry" />
        </mxCell>
        <mxCell id="-I6fj7NBG1tW7BQArgD0-21" value="" style="endArrow=classic;html=1;rounded=0;entryX=0.054;entryY=1.011;entryDx=0;entryDy=0;entryPerimeter=0;" edge="1" parent="1" target="-I6fj7NBG1tW7BQArgD0-11">
          <mxGeometry width="50" height="50" relative="1" as="geometry">
            <mxPoint x="260" y="570" as="sourcePoint" />
            <mxPoint x="310" y="510" as="targetPoint" />
          </mxGeometry>
        </mxCell>
        <mxCell id="-I6fj7NBG1tW7BQArgD0-22" value="" style="endArrow=classic;html=1;rounded=0;entryX=0;entryY=0.5;entryDx=0;entryDy=0;" edge="1" parent="1" target="-I6fj7NBG1tW7BQArgD0-10">
          <mxGeometry width="50" height="50" relative="1" as="geometry">
            <mxPoint x="280" y="610" as="sourcePoint" />
            <mxPoint x="320" y="575" as="targetPoint" />
          </mxGeometry>
        </mxCell>
        <mxCell id="-I6fj7NBG1tW7BQArgD0-25" value="" style="endArrow=classic;html=1;rounded=0;entryX=0.5;entryY=1;entryDx=0;entryDy=0;" edge="1" parent="1" source="-I6fj7NBG1tW7BQArgD0-4" target="-I6fj7NBG1tW7BQArgD0-8">
          <mxGeometry width="50" height="50" relative="1" as="geometry">
            <mxPoint x="860" y="590" as="sourcePoint" />
            <mxPoint x="910" y="540" as="targetPoint" />
          </mxGeometry>
        </mxCell>
        <mxCell id="-I6fj7NBG1tW7BQArgD0-26" value="" style="endArrow=classic;html=1;rounded=0;entryX=1;entryY=0.5;entryDx=0;entryDy=0;" edge="1" parent="1" target="-I6fj7NBG1tW7BQArgD0-7">
          <mxGeometry width="50" height="50" relative="1" as="geometry">
            <mxPoint x="920" y="600" as="sourcePoint" />
            <mxPoint x="840" y="450" as="targetPoint" />
          </mxGeometry>
        </mxCell>
        <mxCell id="-I6fj7NBG1tW7BQArgD0-27" value="" style="endArrow=classic;html=1;rounded=0;entryX=1;entryY=0.5;entryDx=0;entryDy=0;" edge="1" parent="1" target="-I6fj7NBG1tW7BQArgD0-6">
          <mxGeometry width="50" height="50" relative="1" as="geometry">
            <mxPoint x="920" y="640" as="sourcePoint" />
            <mxPoint x="820" y="570" as="targetPoint" />
          </mxGeometry>
        </mxCell>
        <mxCell id="-I6fj7NBG1tW7BQArgD0-28" value="" style="endArrow=classic;html=1;rounded=0;entryX=0;entryY=0.5;entryDx=0;entryDy=0;" edge="1" parent="1" target="-I6fj7NBG1tW7BQArgD0-9">
          <mxGeometry width="50" height="50" relative="1" as="geometry">
            <mxPoint x="280" y="650" as="sourcePoint" />
            <mxPoint x="366" y="611" as="targetPoint" />
          </mxGeometry>
        </mxCell>
        <mxCell id="-I6fj7NBG1tW7BQArgD0-29" value="" style="endArrow=classic;html=1;rounded=0;entryX=0.5;entryY=1;entryDx=0;entryDy=0;" edge="1" parent="1" target="-I6fj7NBG1tW7BQArgD0-12">
          <mxGeometry width="50" height="50" relative="1" as="geometry">
            <mxPoint x="240" y="550" as="sourcePoint" />
            <mxPoint x="270" y="470" as="targetPoint" />
          </mxGeometry>
        </mxCell>
      </root>
    </mxGraphModel>
  </diagram>
</mxfile>
